<svg width="1732" height="66" viewBox="0 0 1732 66" fill="none" xmlns="http://www.w3.org/2000/svg">
<path d="M0.671392 33C0.671392 35.3906 2.60938 37.3286 5 37.3286C7.39062 37.3286 9.32861 35.3906 9.32861 33C9.32861 30.6094 7.39062 28.6714 5 28.6714C2.60938 28.6714 0.671392 30.6094 0.671392 33ZM1722.67 33C1722.67 35.3906 1724.61 37.3286 1727 37.3286C1729.39 37.3286 1731.33 35.3906 1731.33 33C1731.33 30.6094 1729.39 28.6714 1727 28.6714C1724.61 28.6714 1722.67 30.6094 1722.67 33ZM5 33V33.8116H9.06132V33V32.1884H5V33ZM17.184 33V33.8116H25.3066V33V32.1884H17.184V33ZM33.4292 33V33.8116H41.5519V33V32.1884H33.4292V33ZM49.6745 33V33.8116H57.7972V33V32.1884H49.6745V33ZM65.9198 33V33.8116H74.0424V33V32.1884H65.9198V33ZM82.1651 33V33.8116H90.2877V33V32.1884H82.1651V33ZM98.4104 33V33.8116H106.533V33V32.1884H98.4104V33ZM114.656 33V33.8116H122.778V33V32.1884H114.656V33ZM130.901 33V33.8116H139.024V33V32.1884H130.901V33ZM147.146 33V33.8116H155.269V33V32.1884H147.146V33ZM163.391 33V33.8116H171.514V33V32.1884H163.391V33ZM179.637 33V33.8116H187.759V33V32.1884H179.637V33ZM195.882 33V33.8116H204.005V33V32.1884H195.882V33ZM212.127 33V33.8116H220.25V33V32.1884H212.127V33ZM228.373 33V33.8116H236.495V33V32.1884H228.373V33ZM244.618 33V33.8116H252.74V33V32.1884H244.618V33ZM260.863 33V33.8116H268.986V33V32.1884H260.863V33ZM277.108 33V33.8116H285.231V33V32.1884H277.108V33ZM293.354 33V33.8116H301.476V33V32.1884H293.354V33ZM309.599 33V33.8116H317.722V33V32.1884H309.599V33ZM325.844 33V33.8116H333.967V33V32.1884H325.844V33ZM342.09 33V33.8116H350.212V33V32.1884H342.09V33ZM358.335 33V33.8116H366.458V33V32.1884H358.335V33ZM374.58 33V33.8116H382.703V33V32.1884H374.58V33ZM390.826 33V33.8116H398.948V33V32.1884H390.826V33ZM407.071 33V33.8116H415.193V33V32.1884H407.071V33ZM423.316 33V33.8116H431.439V33V32.1884H423.316V33ZM439.561 33V33.8116H447.684V33V32.1884H439.561V33ZM455.807 33V33.8116H463.929V33V32.1884H455.807V33ZM472.052 33V33.8116H480.175V33V32.1884H472.052V33ZM488.297 33V33.8116H496.42V33V32.1884H488.297V33ZM504.543 33V33.8116H512.665V33V32.1884H504.543V33ZM520.788 33V33.8116H528.911V33V32.1884H520.788V33ZM537.033 33V33.8116H545.156V33V32.1884H537.033V33ZM553.278 33V33.8116H561.401V33V32.1884H553.278V33ZM569.524 33V33.8116H577.646V33V32.1884H569.524V33ZM585.769 33V33.8116H593.891V33V32.1884H585.769V33ZM602.014 33V33.8116H610.137V33V32.1884H602.014V33ZM618.259 33V33.8116H626.382V33V32.1884H618.259V33ZM634.505 33V33.8116H642.627V33V32.1884H634.505V33ZM650.75 33V33.8116H658.872V33V32.1884H650.75V33ZM666.995 33V33.8116H675.118V33V32.1884H666.995V33ZM683.24 33V33.8116H691.363V33V32.1884H683.24V33ZM699.486 33V33.8116H707.608V33V32.1884H699.486V33ZM715.731 33V33.8116H723.853V33V32.1884H715.731V33ZM731.976 33V33.8116H740.099V33V32.1884H731.976V33ZM748.221 33V33.8116H756.344V33V32.1884H748.221V33ZM764.466 33V33.8116H772.589V33V32.1884H764.466V33ZM780.712 33V33.8116H788.834V33V32.1884H780.712V33ZM796.957 33V33.8116H805.08V33V32.1884H796.957V33ZM813.202 33V33.8116H821.325V33V32.1884H813.202V33ZM829.447 33V33.8116H837.57V33V32.1884H829.447V33ZM845.693 33V33.8116H853.815V33V32.1884H845.693V33ZM861.938 33V33.8116H870.061V33V32.1884H861.938V33ZM878.183 33V33.8116H886.306V33V32.1884H878.183V33ZM894.428 33V33.8116H902.551V33V32.1884H894.428V33ZM910.674 33V33.8116H918.796V33V32.1884H910.674V33ZM926.919 33V33.8116H935.042V33V32.1884H926.919V33ZM943.164 33V33.8116H951.287V33V32.1884H943.164V33ZM959.409 33V33.8116H967.532V33V32.1884H959.409V33ZM975.655 33V33.8116H983.777V33V32.1884H975.655V33ZM991.9 33V33.8116H1000.02V33V32.1884H991.9V33ZM1008.15 33V33.8116H1016.27V33V32.1884H1008.15V33ZM1024.39 33V33.8116H1032.51V33V32.1884H1024.39V33ZM1040.64 33V33.8116H1048.76V33V32.1884H1040.64V33ZM1056.88 33V33.8116H1065V33V32.1884H1056.88V33ZM1073.13 33V33.8116H1081.25V33V32.1884H1073.13V33ZM1089.37 33V33.8116H1097.49V33V32.1884H1089.37V33ZM1105.62 33V33.8116H1113.74V33V32.1884H1105.62V33ZM1121.86 33V33.8116H1129.99V33V32.1884H1121.86V33ZM1138.11 33V33.8116H1146.23V33V32.1884H1138.11V33ZM1154.35 33V33.8116H1162.48V33V32.1884H1154.35V33ZM1170.6 33V33.8116H1178.72V33V32.1884H1170.6V33ZM1186.84 33V33.8116H1194.97V33V32.1884H1186.84V33ZM1203.09 33V33.8116H1211.21V33V32.1884H1203.09V33ZM1219.33 33V33.8116H1227.46V33V32.1884H1219.33V33ZM1235.58 33V33.8116H1243.7V33V32.1884H1235.58V33ZM1251.83 33V33.8116H1259.95V33V32.1884H1251.83V33ZM1268.07 33V33.8116H1276.19V33V32.1884H1268.07V33ZM1284.32 33V33.8116H1292.44V33V32.1884H1284.32V33ZM1300.56 33V33.8116H1308.68V33V32.1884H1300.56V33ZM1316.81 33V33.8116H1324.93V33V32.1884H1316.81V33ZM1333.05 33V33.8116H1341.17V33V32.1884H1333.05V33ZM1349.3 33V33.8116H1357.42V33V32.1884H1349.3V33ZM1365.54 33V33.8116H1373.67V33V32.1884H1365.54V33ZM1381.79 33V33.8116H1389.91V33V32.1884H1381.79V33ZM1398.03 33V33.8116H1406.16V33V32.1884H1398.03V33ZM1414.28 33V33.8116H1422.4V33V32.1884H1414.28V33ZM1430.52 33V33.8116H1438.65V33V32.1884H1430.52V33ZM1446.77 33V33.8116H1454.89V33V32.1884H1446.77V33ZM1463.02 33V33.8116H1471.14V33V32.1884H1463.02V33ZM1479.26 33V33.8116H1487.38V33V32.1884H1479.26V33ZM1495.51 33V33.8116H1503.63V33V32.1884H1495.51V33ZM1511.75 33V33.8116H1519.87V33V32.1884H1511.75V33ZM1528 33V33.8116H1536.12V33V32.1884H1528V33ZM1544.24 33V33.8116H1552.36V33V32.1884H1544.24V33ZM1560.49 33V33.8116H1568.61V33V32.1884H1560.49V33ZM1576.73 33V33.8116H1584.86V33V32.1884H1576.73V33ZM1592.98 33V33.8116H1601.1V33V32.1884H1592.98V33ZM1609.22 33V33.8116H1617.35V33V32.1884H1609.22V33ZM1625.47 33V33.8116H1633.59V33V32.1884H1625.47V33ZM1641.71 33V33.8116H1649.84V33V32.1884H1641.71V33ZM1657.96 33V33.8116H1666.08V33V32.1884H1657.96V33ZM1674.2 33V33.8116H1682.33V33V32.1884H1674.2V33ZM1690.45 33V33.8116H1698.57V33V32.1884H1690.45V33ZM1706.7 33V33.8116H1714.82V33V32.1884H1706.7V33ZM1722.94 33V33.8116H1727V33V32.1884H1722.94V33Z" fill="#0C2545"/>
<path d="M119.984 56.3274L131.543 38.2665L144.186 38.2665C149.604 38.2665 154.119 35.5574 155.023 32.8482C154.119 30.1391 149.604 27.43 144.186 27.43L131.543 27.43L119.984 9.36908C119.262 8.28543 118.178 7.92421 117.095 8.28543L115.65 8.64665C114.386 9.18848 113.663 10.2721 113.844 11.5364L117.095 27.43L108.064 29.2361L102.646 23.8178L99.0338 23.8178L100.84 32.8482L99.0338 41.8787L102.646 41.8787L108.064 36.4604L117.095 38.2665L113.844 54.1601C113.663 55.4243 114.386 56.508 115.65 57.0498L116.914 57.5916C118.178 57.7723 119.262 57.411 119.984 56.3274Z" fill="#0C2545"/>
<path d="M850.137 56.3274L861.696 38.2665L874.338 38.2665C879.757 38.2665 884.272 35.5574 885.175 32.8482C884.272 30.1391 879.757 27.43 874.338 27.43L861.696 27.43L850.137 9.36908C849.414 8.28543 848.331 7.92421 847.247 8.28543L845.802 8.64665C844.538 9.18848 843.815 10.2721 843.996 11.5364L847.247 27.43L838.217 29.2361L832.798 23.8178L829.186 23.8178L830.992 32.8482L829.186 41.8787L832.798 41.8787L838.217 36.4604L847.247 38.2665L843.996 54.1601C843.815 55.4243 844.538 56.508 845.802 57.0498L847.066 57.5916C848.331 57.7723 849.414 57.411 850.137 56.3274Z" fill="#0C2545"/>
<path d="M1607.14 56.3274L1618.7 38.2665L1631.34 38.2665C1636.76 38.2665 1641.27 35.5574 1642.17 32.8482C1641.27 30.1391 1636.76 27.43 1631.34 27.43L1618.7 27.43L1607.14 9.36908C1606.41 8.28543 1605.33 7.92421 1604.25 8.28543L1602.8 8.64665C1601.54 9.18848 1600.82 10.2721 1601 11.5364L1604.25 27.43L1595.22 29.2361L1589.8 23.8178L1586.19 23.8178L1587.99 32.8482L1586.19 41.8787L1589.8 41.8787L1595.22 36.4604L1604.25 38.2665L1601 54.1601C1600.82 55.4243 1601.54 56.508 1602.8 57.0498L1604.07 57.5916C1605.33 57.7723 1606.41 57.411 1607.14 56.3274Z" fill="#0C2545"/>
<g clip-path="url(#clip0_399_1357)">
<path d="M580.004 59.7966V57.8218H582.988V6.61808C583.623 6.58204 584.149 6.55169 584.754 6.51754C584.815 6.02624 584.875 5.54252 584.942 5H608.721C608.75 5.497 608.777 5.95605 608.807 6.51754C609.351 6.5422 609.875 6.56686 610.505 6.59532V15.0708H612.779V11.8517H619.773V42.8551H612.842V39.7764C612.686 39.6607 612.641 39.5962 612.587 39.5924C611.223 39.471 610.541 40.0944 610.543 41.4627C610.543 46.4896 610.543 51.5165 610.543 56.5433C610.543 56.9151 610.543 57.2888 610.543 57.7877H613.534C613.625 57.9679 613.672 58.0191 613.678 58.076C613.845 59.7643 613.82 59.789 612.159 59.789C602.012 59.7909 591.865 59.7947 581.719 59.7985C581.184 59.7985 580.649 59.7985 580.004 59.7985V59.7966ZM615.85 23.2769L615.808 23.2484C616.719 23.5652 617.362 23.3319 617.647 22.5788C617.92 21.8542 617.641 21.2813 616.867 20.9759C616.539 20.9759 616.211 20.9759 615.882 20.9759C615.196 20.9778 615.061 21.4729 615.031 21.9965C614.997 22.5959 615.118 23.1441 615.848 23.2788L615.85 23.2769ZM592.797 47.0739V57.7213H600.783V47.0739H592.797ZM612.745 37.9136V16.7477C612.417 16.7477 612.14 16.7591 611.865 16.7477C610.379 16.6794 610.544 16.6414 610.544 18.0395C610.543 24.2937 610.544 30.5459 610.544 36.8001C610.544 37.1643 610.544 37.5266 610.544 37.9174H612.745V37.9136ZM608.177 24.544C608.177 23.2731 608.211 22.1691 608.166 21.0708C608.128 20.147 607.652 19.7164 606.709 19.6803C605.952 19.6519 605.193 19.6557 604.438 19.6822C603.469 19.7183 603.006 20.1735 602.97 21.1523C602.938 22.0667 602.924 22.9848 602.989 23.8953C603.006 24.1229 603.344 24.508 603.545 24.5156C605.051 24.5687 606.559 24.544 608.177 24.544ZM602.979 33.2509H608.156C608.156 32.0331 608.185 30.8722 608.147 29.7151C608.12 28.9316 607.627 28.4991 606.864 28.4669C605.982 28.429 605.096 28.4365 604.214 28.484C603.49 28.5219 603.021 28.9563 602.993 29.6866C602.947 30.8475 602.981 32.0104 602.981 33.2528L602.979 33.2509ZM585.482 24.489H590.596C590.596 23.2333 590.68 22.0325 590.551 20.8545C590.507 20.4505 589.978 19.8378 589.599 19.779C588.584 19.6215 587.521 19.6253 586.501 19.7524C586.127 19.7998 585.564 20.348 585.53 20.7123C585.408 21.9509 585.484 23.2067 585.484 24.489H585.482ZM599.353 24.5023C599.353 23.2257 599.362 22.0629 599.349 20.9019C599.341 20.1868 598.911 19.7581 598.249 19.7107C597.277 19.6424 596.281 19.5931 595.329 19.7448C594.921 19.8093 594.324 20.3651 594.282 20.7483C594.147 21.9775 594.233 23.2295 594.233 24.5023H599.353ZM608.158 41.9958C608.158 40.7817 608.19 39.6208 608.147 38.4637C608.116 37.6841 607.635 37.2724 606.849 37.2629C605.998 37.2535 605.148 37.2686 604.296 37.2629C603.484 37.2592 603.038 37.722 602.998 38.4656C602.936 39.6189 602.981 40.7799 602.981 41.9939H608.158V41.9958ZM590.61 33.2661C590.61 32.0312 590.617 30.9007 590.606 29.772C590.598 29.0303 590.192 28.556 589.475 28.5067C588.506 28.4403 587.518 28.3986 586.562 28.5295C586.171 28.5826 585.575 29.0872 585.541 29.4305C585.418 30.6939 585.492 31.9762 585.492 33.2661H590.61ZM599.351 33.2661C599.351 31.9952 599.421 30.7982 599.309 29.6183C599.273 29.2389 598.793 28.6452 598.453 28.5978C597.406 28.4517 596.316 28.4233 595.268 28.556C594.882 28.6054 594.309 29.1953 594.265 29.588C594.132 30.7887 594.218 32.0141 594.218 33.268H599.349L599.351 33.2661ZM602.976 15.6759H608.156C608.156 14.4467 608.196 13.2896 608.141 12.1343C608.105 11.3699 607.621 10.9431 606.836 10.9317C605.986 10.9203 605.136 10.9431 604.288 10.9298C603.514 10.9165 603.057 11.387 603.004 12.0452C602.909 13.2251 602.978 14.4163 602.978 15.674L602.976 15.6759ZM590.61 42.011C590.61 40.7988 590.63 39.6948 590.602 38.5908C590.579 37.7353 590.139 37.244 589.24 37.2497C588.388 37.2554 587.518 37.1605 586.691 37.3047C586.256 37.3787 585.588 37.8358 585.552 38.1754C585.416 39.4406 585.497 40.7286 585.497 42.0129H590.61V42.011ZM585.473 15.6607H590.608C590.608 14.4372 590.642 13.3029 590.596 12.1723C590.566 11.4211 590.162 10.9393 589.341 10.9374C588.457 10.9374 587.573 10.9146 586.689 10.9412C586.006 10.962 585.514 11.3225 585.486 12.0243C585.437 13.2156 585.473 14.4107 585.473 15.6607ZM594.206 41.9825H599.353C599.353 40.7495 599.372 39.5848 599.345 38.4201C599.328 37.7087 598.892 37.3104 598.203 37.2781C597.289 37.2364 596.372 37.2383 595.458 37.2705C594.675 37.299 594.233 37.7561 594.214 38.5358C594.185 39.6664 594.206 40.7988 594.206 41.9787V41.9825ZM594.214 15.7404C595.836 15.7404 597.368 15.7613 598.901 15.712C599.064 15.7063 599.339 15.3041 599.351 15.0765C599.398 14.1337 599.366 13.1871 599.358 12.2425C599.351 11.3945 598.89 10.9658 598.072 10.9393C597.222 10.9127 596.371 10.9279 595.521 10.9355C594.777 10.9431 594.28 11.3566 594.235 12.0585C594.159 13.2422 594.214 14.4353 594.214 15.7423V15.7404ZM617.413 15.6171L617.148 15.5298C617.091 15.6911 617.009 15.8485 616.981 16.0136C616.939 16.2507 616.935 16.4935 616.916 16.7154C616.211 16.8153 615.783 16.4322 615.634 15.5659C615.547 15.5564 615.459 15.5469 615.372 15.5374C615.33 16.3873 615.291 17.2371 615.236 18.3733C615.518 18.1002 615.753 17.9655 615.738 17.8726C615.533 16.6623 616.283 16.9601 616.685 17.0132C617.284 17.3395 616.518 18.0964 617.415 18.1324V15.6152L617.413 15.6171ZM615.949 31.3028C615.854 31.3256 615.757 31.3502 615.662 31.373V33.803H617.212C617.212 33.7707 617.212 33.7385 617.212 33.7062C616.852 33.6891 616.489 33.674 616.057 33.655C616.076 33.3079 616.091 33.0461 616.104 32.7995C616.465 32.7464 616.736 32.7084 617.007 32.6686C617.003 32.6401 617 32.6117 616.996 32.5851C616.698 32.5491 616.4 32.5111 616.12 32.477C616.055 32.0426 616 31.6727 615.947 31.3028H615.949ZM616.212 28.5693C616.324 28.5731 616.434 28.5788 616.546 28.5826V26.2911H617.529C617.525 26.2418 617.521 26.1925 617.518 26.1432H615.272C615.27 26.1925 615.266 26.2399 615.264 26.2892C615.549 26.3082 615.833 26.3272 616.212 26.3518V28.5712V28.5693ZM615.632 36.3391V39.139H616.882C616.108 39.1504 615.956 38.7046 616.028 38.0483C616.072 37.6442 616.083 37.2326 616.063 36.8267C616.057 36.7166 615.884 36.6142 615.632 36.3391Z" fill="#0C2545"/>
</g>
<g clip-path="url(#clip1_399_1357)">
<path d="M356.003 39.7671C356.003 35.6023 355.996 31.4354 356.003 27.2706C356.007 24.3684 357.662 22.6937 360.54 22.685C365.507 22.674 370.477 22.6718 375.444 22.685C378.455 22.6915 380.11 24.364 380.113 27.3758C380.117 35.6703 380.117 43.9647 380.113 52.2592C380.11 55.146 378.363 56.8733 375.45 56.8777C370.556 56.8865 365.661 56.8887 360.764 56.8799C357.684 56.8777 356.009 55.2096 356.005 52.154C356.001 48.0243 356.005 43.8968 356.005 39.7671H356.003ZM375.483 40.2844H375.487C375.487 37.2573 375.492 34.2301 375.485 31.2008C375.485 30.6243 375.569 29.8834 374.736 29.8856C373.975 29.8856 374.036 30.5827 374.034 31.1307C374.032 37.2222 374.03 43.3137 374.034 49.4052C374.034 49.9554 373.99 50.624 374.777 50.6064C375.562 50.5889 375.481 49.9094 375.481 49.368C375.485 46.3408 375.483 43.3137 375.483 40.2844ZM362.053 40.3217C362.053 37.3691 362.053 34.4143 362.053 31.4617C362.053 31.1351 362.112 30.7734 361.996 30.4884C361.891 30.2342 361.582 29.9054 361.36 29.9032C361.13 29.901 360.814 30.2079 360.685 30.4577C360.564 30.6923 360.63 31.0277 360.63 31.3192C360.63 37.2617 360.63 43.2063 360.63 49.1488C360.63 49.4403 360.564 49.7713 360.678 50.0124C360.799 50.2623 361.095 50.5736 361.327 50.5845C361.546 50.5933 361.875 50.2886 361.983 50.0453C362.105 49.7647 362.053 49.403 362.053 49.0743C362.057 46.1567 362.053 43.2392 362.053 40.3239V40.3217ZM367.993 27.3627C368.537 27.3627 369.082 27.3407 369.626 27.367C370.409 27.4065 370.507 26.9352 370.494 26.3171C370.481 25.7121 370.529 25.1137 369.644 25.1334C368.736 25.1531 367.826 25.1772 366.921 25.1246C366.042 25.072 365.593 25.2759 365.595 26.3017C365.599 27.3298 366.121 27.4262 366.904 27.367C367.265 27.3407 367.629 27.3627 367.993 27.3605V27.3627Z" fill="#0C2545"/>
<path d="M363.712 21.1878H362.344V5H373.825V21.1352H372.414C372.414 20.208 372.414 19.3027 372.414 18.3996C372.414 15.4426 372.436 12.4834 372.403 9.52645C372.392 8.53567 372.241 7.54708 372.148 6.52781H364.029C363.924 7.30377 363.733 8.07535 363.727 8.84693C363.694 12.5338 363.712 16.223 363.712 19.9099C363.712 20.3044 363.712 20.7012 363.712 21.19V21.1878Z" fill="#0C2545"/>
<path d="M360.664 58.331H362.652C362.562 58.9097 362.545 59.5015 362.341 60.021C362.282 60.1723 361.462 60.2556 361.376 60.1218C361.074 59.6506 360.938 59.0741 360.664 58.331Z" fill="#0C2545"/>
<path d="M373.406 58.3331H375.252C375.116 58.9666 375.063 59.5541 374.835 60.0648C374.774 60.2007 373.932 60.2117 373.869 60.0801C373.63 59.5738 373.562 58.9885 373.406 58.3331Z" fill="#0C2545"/>
</g>
<g clip-path="url(#clip2_399_1357)">
<path d="M1119.84 26.5393C1120.32 28.2653 1120.91 30 1121.25 31.7848C1121.82 34.8015 1121.02 37.6071 1119.48 40.2016C1119.22 40.6304 1118.65 40.8698 1118.22 41.1963C1117.94 40.7044 1117.52 40.2473 1117.4 39.7184C1116.75 37.0195 1116.3 34.2683 1115.55 31.6041C1115.02 29.7258 1113.94 28.065 1112.26 26.5066C1111.83 28.7332 1111.36 30.7292 1111.08 32.7512C1110.19 39.1351 1110.34 45.4798 1112.33 51.6634C1112.98 53.6811 1113.91 55.6182 1114.82 57.5423C1115.7 59.3989 1115.01 60.5808 1112.94 60.583C1110.65 60.583 1108.37 60.5895 1106.08 60.583C1104.68 60.5786 1104.05 60.078 1103.87 58.7329C1102.47 47.9567 1103.36 37.4939 1108.21 27.5862C1108.3 27.4055 1108.36 27.2118 1108.55 26.746C1106.02 28.755 1104.16 30.9534 1102.53 33.3519C1101.98 34.1594 1101.55 35.0562 1100.94 35.8158C1100.69 36.1379 1100.09 36.3991 1099.7 36.3317C1099.43 36.2838 1099.08 35.6417 1099.08 35.2673C1099.09 32.3507 1100.28 29.8542 1102.08 27.6471C1103.08 26.4196 1104.23 25.3117 1105.5 23.9448C1103.79 24.2234 1102.24 24.4019 1100.73 24.7305C1096.24 25.7035 1092.01 27.3402 1088.04 29.6735C1087.64 29.913 1086.9 30.0893 1086.6 29.8825C1086.23 29.6278 1085.97 28.927 1086 28.4416C1086.33 23.6466 1087.88 19.4959 1092.48 17.18C1095.34 15.7435 1098.44 15.7457 1101.53 16.0961C1103.17 16.2833 1104.78 16.6729 1106.57 16.7512C1104.91 15.5454 1103.37 14.1306 1101.58 13.1795C1098.78 11.6951 1095.82 10.5023 1092.91 9.2399C1092.18 8.92429 1091.44 8.71317 1091.43 7.75765C1091.43 6.79561 1092.17 6.51918 1092.91 6.27105C1096.37 5.11747 1099.9 4.55374 1103.49 5.42002C1108.16 6.5453 1110.91 9.81233 1112.71 14.0545C1112.89 14.4876 1113.04 14.936 1113.2 15.3778C1113.36 15.8066 1113.51 16.2332 1113.63 16.5575C1115.3 15.1798 1116.85 13.6932 1118.6 12.4939C1124.88 8.17555 1131.43 8.92865 1136.7 14.4702C1137.27 15.0731 1137.89 15.663 1138.32 16.3638C1138.62 16.8535 1138.82 17.5805 1138.67 18.0877C1138.59 18.3663 1137.69 18.5491 1137.17 18.5338C1134.24 18.4424 1131.31 18.1769 1128.39 18.1704C1125.81 18.166 1123.28 18.6361 1120.87 19.6417C1120.59 19.7593 1120.33 19.9007 1119.96 20.0792C1121.93 20.4775 1123.78 20.7452 1125.57 21.235C1128.95 22.1622 1131.99 23.7184 1134.1 26.6677C1136.38 29.8585 1136.41 33.4281 1135.73 37.0891C1135.59 37.8335 1135.37 38.5626 1135.16 39.2918C1134.97 39.9295 1134.77 40.5586 1133.94 40.6151C1133.13 40.6717 1132.86 40.0949 1132.49 39.5312C1130.87 37.0956 1129.33 34.5926 1127.52 32.3115C1125.6 29.913 1123.07 28.1804 1120.34 26.7547C1120.14 26.6459 1119.91 26.5676 1119.84 26.5393Z" fill="#0C2545"/>
</g>
<g clip-path="url(#clip3_399_1357)">
<path d="M1376.58 24.7743C1376.62 27.1316 1375.8 30.2364 1374.14 33.1034C1369.14 41.7275 1364.13 50.343 1359.11 58.9528C1358.05 60.7745 1357.58 60.7802 1356.54 59.0015C1351.52 50.3889 1346.47 41.7906 1341.51 33.1464C1337.51 26.1749 1338.37 17.6597 1343.59 11.5131C1348.53 5.69305 1357.02 3.45898 1364.17 6.09977C1371.7 8.88091 1376.55 15.8123 1376.58 24.7715V24.7743ZM1367.32 23.8578C1367.34 18.5705 1363.09 14.2799 1357.83 14.2713C1352.56 14.2627 1348.31 18.5075 1348.3 23.8005C1348.28 29.0764 1352.56 33.4099 1357.78 33.4185C1363.02 33.4271 1367.31 29.1308 1367.32 23.8549V23.8578Z" fill="#0C2545"/>
</g>
<defs>
<clipPath id="clip0_399_1357">
<rect width="39.7691" height="54.7965" fill="white" transform="translate(580.004 5)"/>
</clipPath>
<clipPath id="clip1_399_1357">
<rect width="24.1184" height="55.1898" fill="white" transform="translate(356.004 5)"/>
</clipPath>
<clipPath id="clip2_399_1357">
<rect width="52.7143" height="55.5852" fill="white" transform="translate(1086 5)"/>
</clipPath>
<clipPath id="clip3_399_1357">
<rect width="37.5783" height="55.3277" fill="white" transform="translate(1339 5)"/>
</clipPath>
</defs>
</svg>
