<svg width="77" height="78" viewBox="0 0 77 78" fill="none" xmlns="http://www.w3.org/2000/svg">
<rect x="0.63786" y="1.40153" width="75.2675" height="75.2675" rx="37.6337" stroke="#474747" stroke-width="1.27572"/>
<path d="M27.6344 37.4427C27.106 37.4441 26.5888 37.5952 26.1426 37.8784C25.6965 38.1615 25.3396 38.5652 25.1133 39.0428C24.8871 39.5203 24.8006 40.0521 24.8639 40.5767C24.9273 41.1013 25.1379 41.5973 25.4713 42.0071L32.5799 50.7151C32.8333 51.0298 33.1582 51.2795 33.5275 51.4434C33.8969 51.6073 34.3 51.6808 34.7034 51.6576C35.5662 51.6113 36.3452 51.1497 36.8418 50.3908L51.608 26.6099C51.6105 26.606 51.613 26.602 51.6156 26.5982C51.7541 26.3854 51.7092 25.9639 51.4232 25.699C51.3446 25.6263 51.252 25.5704 51.1511 25.5348C51.05 25.4992 50.9429 25.4847 50.8361 25.4921C50.7293 25.4995 50.6251 25.5287 50.5301 25.5779C50.4349 25.6271 50.351 25.6952 50.2832 25.7781C50.2779 25.7846 50.2724 25.791 50.2668 25.7973L35.3749 42.6229C35.3182 42.687 35.2494 42.7391 35.1724 42.7763C35.0955 42.8135 35.0118 42.8351 34.9265 42.8397C34.8411 42.8443 34.7557 42.8319 34.6751 42.8032C34.5946 42.7745 34.5205 42.7301 34.4573 42.6726L29.5149 38.175C29.0016 37.7045 28.3307 37.4433 27.6344 37.4427Z" fill="#F27709"/>
</svg>
