<svg width="72" height="91" viewBox="0 0 72 91" fill="none" xmlns="http://www.w3.org/2000/svg">
<path d="M69.4914 5.40385C68.1034 10.2025 66.7279 15.0053 65.3252 19.7998C62.7829 28.4912 60.2218 37.1784 57.6754 45.8678C57.5794 46.1976 57.548 46.5441 57.4854 46.8843C54.2961 46.7507 51.1046 46.615 47.9153 46.4814C44.657 46.3458 41.3967 46.2184 38.1385 46.0744C31.6199 45.7885 25.1013 45.5025 18.5849 45.1936C16.4371 45.0913 14.2913 44.9264 12.1477 44.7678C11.2711 44.7031 10.3986 44.5778 9.36328 44.461C9.70977 43.9162 9.93937 43.4945 10.2232 43.1147C14.4562 37.4414 18.7101 31.7828 22.9347 26.1034C27.6144 19.8102 32.2523 13.4837 36.9466 7.20099C38.9128 4.56894 41.5261 3.16629 44.8971 3.20386C49.7646 3.25813 54.6363 3.14959 59.5017 3.24769C61.6746 3.29153 63.8662 3.54409 66.0015 3.94693C67.2121 4.17444 68.3309 4.89873 69.4914 5.39967V5.40385Z" fill="#85C1E9"/>
<path d="M55.4088 54.6407C54.647 57.2394 53.9039 59.8443 53.1191 62.4346C50.8231 70.0156 48.5375 77.6008 46.1789 85.1651C45.7176 86.647 44.987 88.0538 44.3066 89.4565C43.7743 90.5502 43.4487 90.5356 42.3091 90.1599C40.896 89.6924 40.4347 88.8387 40.2635 87.3525C39.2533 78.5734 36.6338 70.3684 31.0837 63.3155C26.953 58.068 21.4551 54.7743 15.2726 52.5222C10.7056 50.8586 5.98004 49.9026 1.12713 49.5833C0.851608 49.5645 0.578175 49.5227 0.30683 49.4768C0.248386 49.4664 0.198291 49.3954 0 49.2368C0.634532 48.4478 1.27324 47.6525 1.91194 46.8594C4.88005 47.185 7.8565 47.4501 10.8142 47.8508C18.558 48.8966 26.3038 49.9277 34.0289 51.1028C41.1694 52.1882 48.2808 53.4552 55.4067 54.6407H55.4088Z" fill="white"/>
<path d="M69.4904 5.40404C68.3299 4.90309 67.2132 4.17881 66.0005 3.95129C63.8631 3.54845 61.6735 3.29589 59.5007 3.25206C54.6332 3.15395 49.7635 3.2604 44.896 3.20822C41.5251 3.17065 38.9118 4.5733 36.9456 7.20536C32.2513 13.4881 27.6134 19.8146 22.9337 26.1077C18.7091 31.7872 14.4573 37.4458 10.2222 43.119C9.93834 43.4989 9.70873 43.9205 9.36225 44.4653C10.3975 44.5801 11.27 44.7054 12.1467 44.7721C14.2903 44.9308 16.436 45.0957 18.5838 45.1979C25.1003 45.5069 31.6189 45.7907 38.1374 46.0788C41.3957 46.2228 44.656 46.3501 47.9142 46.4858C51.1036 46.6194 54.295 46.753 57.4844 46.8886C57.3633 47.59 57.2402 48.2934 57.1191 48.9947C56.7747 48.9571 56.4303 48.9029 56.0838 48.8841C44.8835 48.2266 33.6832 47.5461 22.4808 46.9262C15.8578 46.5609 9.22866 46.2917 2.60156 45.9786C5.16682 42.6473 7.71956 39.3077 10.2994 35.9868C18.252 25.7425 26.2024 15.5002 34.1841 5.28089C36.8558 1.86193 40.5086 0.0919201 44.7624 0.0334764C52.4394 -0.0708874 60.1206 0.0940074 67.7997 0.18376C68.7661 0.194197 69.7304 0.419622 70.6906 0.571994C70.9932 0.620001 71.2813 0.753587 71.8699 0.941441C71.0496 2.47768 70.271 3.94086 69.4904 5.40404Z" fill="white"/>
<path d="M2.61094 45.9747C9.23804 46.2878 15.8672 46.555 22.4902 46.9224C33.6926 47.5423 44.8929 48.2227 56.0932 48.8802C56.4397 48.9011 56.782 48.9533 57.1285 48.9909C56.5566 50.8736 55.9847 52.7584 55.4128 54.6411C48.2889 53.4555 41.1754 52.1886 34.0349 51.1032C26.3099 49.928 18.564 48.8969 10.8202 47.8512C7.86253 47.4525 4.88607 47.1875 1.91797 46.8597C2.14757 46.5634 2.37926 46.269 2.60886 45.9727L2.61094 45.9747Z" fill="#68B345"/>
</svg>
