<svg width="46" height="46" viewBox="0 0 46 46" fill="none" xmlns="http://www.w3.org/2000/svg">
<rect x="0.00390625" width="45.9263" height="45.9263" rx="22.9631" fill="white"/>
<rect x="0.641771" y="0.637865" width="44.6505" height="44.6505" rx="22.3253" stroke="#111827" stroke-opacity="0.12" stroke-width="1.27573"/>
<path d="M24.5521 24.9558H26.8112L27.7148 21.3412H24.5521V19.5339C24.5521 19.1243 24.5701 18.8291 24.6063 18.6483C24.6786 18.3592 24.8352 18.1363 25.0762 17.9796C25.3653 17.811 25.7931 17.7266 26.3593 17.7266H27.7148V14.6904C27.51 14.6663 27.1847 14.6422 26.7389 14.6181C26.1846 14.582 25.6485 14.5639 25.1304 14.5639C24.299 14.5639 23.5671 14.7295 22.9345 15.0609C22.302 15.3922 21.817 15.8651 21.4797 16.4796C21.1182 17.1423 20.9375 17.9194 20.9375 18.811V21.3412H18.2266V24.9558H20.9375V32.6367H24.5521V24.9558Z" fill="#F27709"/>
</svg>
