<svg width="47" height="46" viewBox="0 0 47 46" fill="none" xmlns="http://www.w3.org/2000/svg">
<rect x="0.816406" width="45.9263" height="45.9263" rx="22.9631" fill="white"/>
<rect x="1.45427" y="0.637865" width="44.6505" height="44.6505" rx="22.3253" stroke="#111827" stroke-opacity="0.12" stroke-width="1.27573"/>
<path d="M23.7708 20.8894C23.2768 20.8894 22.822 21.0099 22.4063 21.2508C21.9906 21.4918 21.6623 21.8201 21.4213 22.2358C21.1804 22.6515 21.0599 23.1063 21.0599 23.6003C21.0599 24.0943 21.1804 24.5491 21.4213 24.9648C21.6623 25.3805 21.9906 25.7088 22.4063 25.9498C22.822 26.1907 23.2768 26.3112 23.7708 26.3112C24.2648 26.3112 24.7196 26.1907 25.1353 25.9498C25.551 25.7088 25.8793 25.3805 26.1203 24.9648C26.3612 24.5491 26.4817 24.0943 26.4817 23.6003C26.4817 23.1063 26.3612 22.6515 26.1203 22.2358C25.8793 21.8201 25.551 21.4918 25.1353 21.2508C24.7196 21.0099 24.2648 20.8894 23.7708 20.8894ZM23.7708 19.0821C24.5901 19.0821 25.3461 19.2839 26.0389 19.6875C26.7317 20.0912 27.2799 20.6394 27.6836 21.3322C28.0872 22.025 28.289 22.781 28.289 23.6003C28.289 24.4196 28.0872 25.1756 27.6836 25.8684C27.2799 26.5612 26.7317 27.1094 26.0389 27.5131C25.3461 27.9167 24.5901 28.1185 23.7708 28.1185C22.9515 28.1185 22.1954 27.9167 21.5027 27.5131C20.8099 27.1094 20.2617 26.5612 19.858 25.8684C19.4544 25.1756 19.2526 24.4196 19.2526 23.6003C19.2526 22.781 19.4544 22.025 19.858 21.3322C20.2617 20.6394 20.8099 20.0912 21.5027 19.6875C22.1954 19.2839 22.9515 19.0821 23.7708 19.0821ZM29.6445 18.8471C29.6445 19.1604 29.533 19.4285 29.3101 19.6514C29.0872 19.8743 28.8222 19.9857 28.5149 19.9857C28.2077 19.9857 27.9426 19.8743 27.7197 19.6514C27.4968 19.4285 27.3854 19.1634 27.3854 18.8562C27.3854 18.5489 27.4968 18.2839 27.7197 18.061C27.9426 17.8381 28.2077 17.7266 28.5149 17.7266C28.8222 17.7266 29.0872 17.8381 29.3101 18.061C29.533 18.2839 29.6445 18.5459 29.6445 18.8471ZM23.7708 16.3712C22.6623 16.3712 21.9093 16.3742 21.5117 16.3802C21.1141 16.3862 20.6562 16.4013 20.1382 16.4254C19.4875 16.4495 18.9453 16.5459 18.5116 16.7145C18.1381 16.8591 17.8098 17.073 17.5266 17.3561C17.2435 17.6393 17.0296 17.9676 16.885 18.3411C16.7164 18.7749 16.62 19.317 16.5959 19.9677C16.5718 20.4616 16.5567 20.9044 16.5507 21.296C16.5447 21.6876 16.5417 22.4557 16.5417 23.6003C16.5417 24.7088 16.5447 25.4618 16.5507 25.8594C16.5567 26.257 16.5718 26.7149 16.5959 27.2329C16.62 27.8836 16.7164 28.4257 16.885 28.8595C17.0296 29.233 17.2435 29.5613 17.5266 29.8445C17.8098 30.1276 18.1381 30.3354 18.5116 30.468C18.9453 30.6487 19.4875 30.7511 20.1382 30.7752C20.6321 30.7993 21.0749 30.8144 21.4665 30.8204C21.8581 30.8264 22.6262 30.8294 23.7708 30.8294C24.8793 30.8294 25.6323 30.8264 26.0299 30.8204C26.4275 30.8144 26.8853 30.7993 27.4034 30.7752C28.0541 30.7511 28.5962 30.6547 29.03 30.4861C29.4035 30.3415 29.7318 30.1276 30.015 29.8445C30.2981 29.5613 30.5059 29.233 30.6385 28.8595C30.8192 28.4257 30.9216 27.8836 30.9457 27.2329C30.9698 26.7389 30.9849 26.2962 30.9909 25.9046C30.9969 25.513 30.9999 24.7449 30.9999 23.6003C30.9999 22.4918 30.9969 21.7388 30.9909 21.3412C30.9849 20.9436 30.9698 20.4857 30.9457 19.9677C30.9216 19.317 30.8252 18.7749 30.6565 18.3411C30.512 17.9676 30.2981 17.6393 30.015 17.3561C29.7318 17.073 29.4035 16.8591 29.03 16.7145C28.5962 16.5459 28.0541 16.4495 27.4034 16.4254C26.9094 16.4013 26.4667 16.3862 26.0751 16.3802C25.6835 16.3742 24.9154 16.3712 23.7708 16.3712ZM23.7708 14.5639C24.9516 14.5639 25.7588 14.5699 26.1926 14.582C26.554 14.582 26.9878 14.594 27.4938 14.6181C28.3372 14.6542 29.0661 14.7928 29.6806 15.0338C30.2951 15.2747 30.8313 15.6242 31.2891 16.082C31.7469 16.5398 32.0963 17.076 32.3373 17.6905C32.5783 18.305 32.7169 19.0339 32.753 19.8773C32.7771 20.3954 32.7891 20.8291 32.7891 21.1785C32.8012 21.6364 32.8072 22.4497 32.8072 23.6184C32.8072 24.7871 32.8012 25.5883 32.7891 26.0221C32.7891 26.3835 32.7771 26.8173 32.753 27.3233C32.7169 28.1667 32.5783 28.8956 32.3373 29.5101C32.0963 30.1246 31.7469 30.6608 31.2891 31.1186C30.8313 31.5764 30.2951 31.9259 29.6806 32.1668C29.0661 32.4078 28.3372 32.5464 27.4938 32.5825C26.9757 32.6066 26.542 32.6186 26.1926 32.6186C25.7347 32.6307 24.9214 32.6367 23.7527 32.6367C22.584 32.6367 21.7828 32.6307 21.349 32.6186C20.9876 32.6186 20.5538 32.6066 20.0478 32.5825C19.2044 32.5464 18.4755 32.4078 17.861 32.1668C17.2465 31.9259 16.7103 31.5764 16.2525 31.1186C15.7946 30.6608 15.4452 30.1246 15.2043 29.5101C14.9633 28.8956 14.8247 28.1667 14.7886 27.3233C14.7645 26.8052 14.7524 26.3715 14.7524 26.0221C14.7404 25.5642 14.7344 24.7509 14.7344 23.5822C14.7344 22.4135 14.7404 21.6123 14.7524 21.1785C14.7524 20.8171 14.7645 20.3833 14.7886 19.8773C14.8247 19.0339 14.9633 18.305 15.2043 17.6905C15.4452 17.076 15.7946 16.5398 16.2525 16.082C16.7103 15.6242 17.2465 15.2747 17.861 15.0338C18.4755 14.7928 19.2044 14.6542 20.0478 14.6181C20.5659 14.594 20.9996 14.582 21.349 14.582C21.8069 14.5699 22.6141 14.5639 23.7708 14.5639Z" fill="#F27709"/>
</svg>
