<svg width="46" height="46" viewBox="0 0 46 46" fill="none" xmlns="http://www.w3.org/2000/svg">
<rect width="46" height="46" rx="23" fill="url(#paint0_radial_415_1110)"/>
<g clip-path="url(#clip0_415_1110)">
<g clip-path="url(#clip1_415_1110)">
<path d="M22.3135 28.7289H20.2505C19.7648 28.7305 19.2995 28.9241 18.9561 29.2675C18.6127 29.6109 18.4191 30.0763 18.4175 30.5619V30.7919H17.5005C17.3186 30.7932 17.1445 30.866 17.0158 30.9945C16.8871 31.123 16.8141 31.297 16.8125 31.4789C16.8125 31.8549 17.1245 32.1669 17.5005 32.1669H28.5005C28.6826 32.1659 28.857 32.093 28.9858 31.9642C29.1146 31.8354 29.1874 31.6611 29.1885 31.4789C29.1872 31.2968 29.1143 31.1226 28.9855 30.9939C28.8568 30.8651 28.6826 30.7922 28.5005 30.7909H27.5835V30.5619C27.5819 30.0763 27.3883 29.6109 27.0449 29.2675C26.7015 28.9241 26.2362 28.7305 25.7505 28.7289H23.6875V26.6289C23.4595 26.6552 23.23 26.6675 23.0005 26.6659C22.7705 26.6659 22.5425 26.6569 22.3125 26.6299L22.3135 28.7289Z" fill="#0E1226"/>
<path d="M28.9399 22.67C29.5256 22.4407 30.0564 22.0908 30.4979 21.643C31.3509 20.699 31.9099 19.571 31.9099 18.251C31.913 17.9408 31.8542 17.6331 31.7369 17.3459C31.6195 17.0588 31.4461 16.7979 31.2267 16.5786C31.0073 16.3592 30.7463 16.1859 30.4591 16.0687C30.1719 15.9515 29.8642 15.8928 29.5539 15.896H29.0409C28.7411 15.2783 28.2737 14.7573 27.6919 14.3925C27.1102 14.0277 26.4376 13.8338 25.7509 13.833H20.2509C19.564 13.8335 18.891 14.0272 18.3088 14.392C17.7267 14.7568 17.2589 15.278 16.9589 15.896H16.4459C16.1358 15.8928 15.8282 15.9515 15.541 16.0686C15.2539 16.1858 14.993 16.359 14.7736 16.5782C14.5542 16.7974 14.3807 17.0582 14.2633 17.3452C14.146 17.6323 14.087 17.9399 14.0899 18.25C14.0899 19.57 14.6499 20.698 15.5019 21.642C15.9229 22.064 16.4549 22.439 17.0599 22.669C17.5389 23.8514 18.3603 24.8636 19.4187 25.5758C20.4771 26.288 21.7242 26.6677 22.9999 26.666C24.2755 26.6677 25.5226 26.2882 26.5809 25.5762C27.6393 24.8642 28.4608 23.8522 28.9399 22.67ZM25.6029 19.745L25.0349 20.442C24.9366 20.5673 24.8846 20.7228 24.8879 20.882L24.9429 21.781C24.9799 22.331 24.5859 22.615 24.0729 22.413L23.2379 22.083C23.0826 22.0373 22.9173 22.0373 22.7619 22.083L21.9279 22.413C21.4139 22.615 21.0199 22.331 21.0569 21.78L21.1119 20.882C21.1153 20.7228 21.0633 20.5673 20.9649 20.442L20.3969 19.745C20.0389 19.324 20.1949 18.856 20.7269 18.719L21.5969 18.499C21.7503 18.4487 21.8826 18.3488 21.9729 18.215L22.4589 17.463C22.7619 16.996 23.2389 16.996 23.5409 17.463L24.0269 18.215C24.1173 18.3488 24.2496 18.4487 24.4029 18.499L25.2729 18.719C25.8049 18.856 25.9609 19.324 25.6029 19.746V19.745Z" fill="#0E1226"/>
</g>
</g>
<rect x="0.5" y="0.5" width="45" height="45" rx="22.5" stroke="#F0ECE7"/>
<defs>
<radialGradient id="paint0_radial_415_1110" cx="0" cy="0" r="1" gradientUnits="userSpaceOnUse" gradientTransform="translate(23 23) scale(34.5 16.1)">
<stop offset="0.353129" stop-color="#F0ECE7"/>
<stop offset="1" stop-color="white"/>
</radialGradient>
<clipPath id="clip0_415_1110">
<rect width="28" height="28" fill="white" transform="translate(9 9)"/>
</clipPath>
<clipPath id="clip1_415_1110">
<rect width="28" height="28" fill="white" transform="translate(9 9)"/>
</clipPath>
</defs>
</svg>
