<svg width="46" height="46" viewBox="0 0 46 46" fill="none" xmlns="http://www.w3.org/2000/svg">
<rect width="46" height="46" rx="23" fill="url(#paint0_radial_415_1017)"/>
<g clip-path="url(#clip0_415_1017)">
<g clip-path="url(#clip1_415_1017)">
<path d="M32.5589 21.7401L31.1989 20.1601C30.9389 19.8601 30.7289 19.3001 30.7289 18.9001V17.2001C30.7289 16.1401 29.8589 15.2701 28.7989 15.2701H27.0989C26.7089 15.2701 26.1389 15.0601 25.8389 14.8001L24.2589 13.4401C23.5689 12.8501 22.4389 12.8501 21.7389 13.4401L20.1689 14.8101C19.8689 15.0601 19.2989 15.2701 18.9089 15.2701H17.1789C16.1189 15.2701 15.2489 16.1401 15.2489 17.2001V18.9101C15.2489 19.3001 15.0389 19.8601 14.7889 20.1601L13.4389 21.7501C12.8589 22.4401 12.8589 23.5601 13.4389 24.2501L14.7889 25.8401C15.0389 26.1401 15.2489 26.7001 15.2489 27.0901V28.8001C15.2489 29.8601 16.1189 30.7301 17.1789 30.7301H18.9089C19.2989 30.7301 19.8689 30.9401 20.1689 31.2001L21.7489 32.5601C22.4389 33.1501 23.5689 33.1501 24.2689 32.5601L25.8489 31.2001C26.1489 30.9401 26.7089 30.7301 27.1089 30.7301H28.8089C29.8689 30.7301 30.7389 29.8601 30.7389 28.8001V27.1001C30.7389 26.7101 30.9489 26.1401 31.2089 25.8401L32.5689 24.2601C33.1489 23.5701 33.1489 22.4301 32.5589 21.7401ZM27.6789 23.0001L26.5089 26.5601C26.3589 27.1501 25.7289 27.6301 25.0889 27.6301H23.2389C22.9189 27.6301 22.4689 27.5201 22.2689 27.3201L20.7989 26.1701C20.7689 26.8101 20.4789 27.0801 19.7689 27.0801H19.2889C18.5489 27.0801 18.2489 26.7901 18.2489 26.0901V21.3101C18.2489 20.6101 18.5489 20.3201 19.2889 20.3201H19.7789C20.5189 20.3201 20.8189 20.6101 20.8189 21.3101V21.6701L22.7589 18.7901C22.9589 18.4801 23.4689 18.2601 23.8989 18.4301C24.3689 18.5901 24.6689 19.1101 24.5689 19.5701L24.3289 21.1301C24.3089 21.2701 24.3389 21.4001 24.4289 21.5001C24.5089 21.5901 24.6289 21.6501 24.7589 21.6501H26.7089C27.0889 21.6501 27.4089 21.8001 27.5989 22.0701C27.7689 22.3301 27.7989 22.6601 27.6789 23.0001Z" fill="#0E1226"/>
</g>
</g>
<rect x="0.5" y="0.5" width="45" height="45" rx="22.5" stroke="#F0ECE7"/>
<defs>
<radialGradient id="paint0_radial_415_1017" cx="0" cy="0" r="1" gradientUnits="userSpaceOnUse" gradientTransform="translate(23 23) scale(34.5 16.1)">
<stop offset="0.353129" stop-color="#F0ECE7"/>
<stop offset="1" stop-color="white"/>
</radialGradient>
<clipPath id="clip0_415_1017">
<rect width="28" height="28" fill="white" transform="translate(9 9)"/>
</clipPath>
<clipPath id="clip1_415_1017">
<rect width="28" height="28" fill="white" transform="translate(9 9)"/>
</clipPath>
</defs>
</svg>
