<svg width="46" height="46" viewBox="0 0 46 46" fill="none" xmlns="http://www.w3.org/2000/svg">
<rect width="46" height="46" rx="23" fill="url(#paint0_radial_415_1063)"/>
<g clip-path="url(#clip0_415_1063)">
<g clip-path="url(#clip1_415_1063)">
<path d="M31.4797 28.9311L29.9667 29.2891C29.8011 29.3265 29.6495 29.4101 29.5293 29.53C29.4092 29.65 29.3254 29.8015 29.2877 29.9671L28.9677 31.3151C28.7927 32.0481 27.8577 32.2771 27.3717 31.7001L24.6317 28.5461C24.5807 28.4874 24.5455 28.4167 24.5294 28.3406C24.5133 28.2646 24.5169 28.1857 24.5399 28.1114C24.5628 28.0371 24.6043 27.9699 24.6604 27.9161C24.7166 27.8623 24.7855 27.8238 24.8607 27.8041C26.4877 27.4085 27.9437 26.4988 29.0127 25.2101C29.0522 25.1595 29.102 25.1178 29.1587 25.0877C29.2155 25.0576 29.2779 25.0398 29.3419 25.0355C29.406 25.0311 29.4703 25.0403 29.5305 25.0625C29.5908 25.0847 29.6457 25.1193 29.6917 25.1641L31.7267 27.1991C32.4227 27.8951 32.1767 28.7661 31.4797 28.9311Z" fill="#F07822"/>
<path d="M14.475 28.9311L15.987 29.2891C16.1526 29.3265 16.3043 29.4101 16.4244 29.53C16.5446 29.65 16.6283 29.8015 16.666 29.9671L16.986 31.3151C17.161 32.0481 18.096 32.2771 18.582 31.7001L21.322 28.5461C21.3731 28.4874 21.4083 28.4167 21.4243 28.3406C21.4404 28.2646 21.4368 28.1857 21.4139 28.1114C21.391 28.0371 21.3495 27.9699 21.2933 27.9161C21.2372 27.8623 21.1682 27.8238 21.093 27.8041C19.4661 27.4085 18.01 26.4988 16.941 25.2101C16.9015 25.1595 16.8518 25.1178 16.795 25.0877C16.7383 25.0576 16.6759 25.0398 16.6118 25.0355C16.5477 25.0311 16.4835 25.0403 16.4232 25.0625C16.363 25.0847 16.308 25.1193 16.262 25.1641L14.227 27.1991C13.531 27.8951 13.778 28.7661 14.475 28.9311Z" fill="#F07822"/>
<path d="M22.999 13.833C22.1562 13.8324 21.3214 13.9979 20.5426 14.3201C19.7637 14.6424 19.0561 15.115 18.4601 15.711C17.8641 16.307 17.3914 17.0147 17.0692 17.7936C16.7469 18.5724 16.5814 19.4071 16.582 20.25C16.582 21.579 16.976 22.798 17.655 23.816C18.1521 24.5572 18.7985 25.1863 19.553 25.663C20.3074 26.1397 21.1532 26.4534 22.036 26.584C22.348 26.639 22.669 26.666 22.999 26.666C23.329 26.666 23.649 26.639 23.961 26.584C24.844 26.4535 25.69 26.1399 26.4446 25.6632C27.1993 25.1865 27.8459 24.5573 28.343 23.816C29.047 22.7603 29.4205 21.5189 29.416 20.25C29.4167 19.4071 29.2512 18.5724 28.9289 17.7936C28.6067 17.0147 28.134 16.307 27.538 15.711C26.942 15.115 26.2343 14.6424 25.4555 14.3201C24.6766 13.9979 23.8419 13.8324 22.999 13.833ZM25.804 20.048L25.044 20.808C24.9762 20.8827 24.9267 20.9723 24.8994 21.0695C24.8722 21.1667 24.8679 21.2689 24.887 21.368L25.107 22.312C25.281 23.055 24.887 23.348 24.227 22.954L23.311 22.413C23.2179 22.3634 23.114 22.3374 23.0085 22.3374C22.903 22.3374 22.7991 22.3634 22.706 22.413L21.789 22.953C21.129 23.339 20.735 23.055 20.909 22.313L21.129 21.368C21.1452 21.2689 21.1396 21.1675 21.1127 21.0708C21.0858 20.9741 21.0381 20.8845 20.973 20.808L20.193 20.048C19.745 19.598 19.891 19.15 20.515 19.048L21.495 18.884C21.5852 18.8633 21.67 18.824 21.7442 18.7688C21.8184 18.7135 21.8803 18.6434 21.926 18.563L22.467 17.481C22.761 16.895 23.237 16.895 23.531 17.481L24.071 18.563C24.1176 18.6444 24.1809 18.715 24.2568 18.7701C24.3326 18.8253 24.4193 18.8638 24.511 18.883L25.492 19.049C26.106 19.149 26.253 19.599 25.804 20.048Z" fill="#F07822"/>
</g>
</g>
<rect x="0.5" y="0.5" width="45" height="45" rx="22.5" stroke="#F3F3F1"/>
<defs>
<radialGradient id="paint0_radial_415_1063" cx="0" cy="0" r="1" gradientUnits="userSpaceOnUse" gradientTransform="translate(23 23) scale(34.5 16.1)">
<stop offset="0.353129" stop-color="#F0ECE7"/>
<stop offset="1" stop-color="white"/>
</radialGradient>
<clipPath id="clip0_415_1063">
<rect width="28" height="28" fill="white" transform="translate(9 9)"/>
</clipPath>
<clipPath id="clip1_415_1063">
<rect width="28" height="28" fill="white" transform="translate(9 9)"/>
</clipPath>
</defs>
</svg>
