<svg width="85" height="85" viewBox="0 0 85 85" fill="none" xmlns="http://www.w3.org/2000/svg">
<path d="M29.6107 7.28906H10.1801C7.48111 7.28906 5.18743 8.23368 3.298 10.1224C1.40947 12.0115 0.464844 14.3052 0.464844 17.0044V36.4341C0.464844 39.1331 1.40894 41.4265 3.298 43.3152C5.18725 45.2038 7.48165 46.1487 10.1801 46.1487H21.5144C22.8633 46.1487 24.0104 46.6212 24.9551 47.5655C25.8996 48.5092 26.3718 49.6568 26.3718 51.0067V52.625C26.3718 56.2009 25.1065 59.2528 22.5769 61.7832C20.0469 64.3124 16.9943 65.5775 13.4181 65.5775H10.1801C9.30248 65.5775 8.54378 65.8988 7.90256 66.5393C7.26188 67.1799 6.94128 67.939 6.94128 68.8161V75.2937C6.94128 76.1693 7.26188 76.9301 7.90256 77.5707C8.5443 78.211 9.30231 78.5325 10.1801 78.5325H13.4183C16.9269 78.5325 20.2749 77.8484 23.4628 76.4827C26.6507 75.1167 29.4081 73.2694 31.7358 70.9417C34.063 68.6138 35.9101 65.8568 37.2761 62.6688C38.642 59.481 39.3252 56.1333 39.3252 52.6252V17.0036C39.3252 14.3044 38.3806 12.0109 36.4918 10.1222C34.6031 8.2335 32.309 7.28906 29.6107 7.28906Z" fill="#85C1E9"/>
<path d="M81.8301 10.1224C79.9416 8.23368 77.6477 7.28906 74.9486 7.28906H55.5188C52.8199 7.28906 50.5261 8.23368 48.6374 10.1224C46.7488 12.0117 45.8047 14.3052 45.8047 17.0044V36.4341C45.8047 39.1331 46.7488 41.4265 48.6374 43.3152C50.5261 45.2038 52.82 46.1487 55.5188 46.1487H66.8531C68.202 46.1487 69.35 46.6212 70.2946 47.5655C71.2381 48.5098 71.7112 49.6568 71.7112 51.0067V52.625C71.7112 56.2009 70.446 59.2528 67.9157 61.7832C65.386 64.3124 62.3342 65.5775 58.7575 65.5775H55.5188C54.642 65.5775 53.8825 65.8988 53.242 66.5393C52.601 67.1799 52.28 67.939 52.28 68.8161V75.2937C52.28 76.1693 52.601 76.9301 53.242 77.5707C53.8823 78.211 54.6417 78.5325 55.5188 78.5325H58.7575C62.2656 78.5325 65.6134 77.8484 68.8017 76.4827C71.989 75.1167 74.7461 73.2694 77.074 70.9417C79.4017 68.6138 81.2498 65.856 82.6151 62.6688C83.9807 59.4818 84.6643 56.1333 84.6643 52.6252V17.0036C84.6638 14.3044 83.72 12.0109 81.8301 10.1224Z" fill="#85C1E9"/>
</svg>
