<svg width="270" height="62" viewBox="0 0 270 62" fill="none" xmlns="http://www.w3.org/2000/svg">
<path d="M0.957834 13.2109C0.957834 16.2502 3.42166 18.714 6.46094 18.714C9.50022 18.714 11.964 16.2502 11.964 13.2109C11.964 10.1717 9.50022 7.70783 6.46094 7.70783C3.42166 7.70783 0.957834 10.1717 0.957834 13.2109ZM258.916 13.2109C258.916 16.2502 261.38 18.714 264.419 18.714C267.458 18.714 269.922 16.2502 269.922 13.2109C269.922 10.1717 267.458 7.70783 264.419 7.70783C261.38 7.70783 258.916 10.1717 258.916 13.2109ZM6.46094 13.2109V14.2428H8.54124V13.2109V12.1791H6.46094V13.2109ZM12.7019 13.2109V14.2428H16.8625V13.2109V12.1791H12.7019V13.2109ZM21.0231 13.2109V14.2428H25.1837V13.2109V12.1791H21.0231V13.2109ZM29.3443 13.2109V14.2428H33.5049V13.2109V12.1791H29.3443V13.2109ZM37.6655 13.2109V14.2428H41.8261V13.2109V12.1791H37.6655V13.2109ZM45.9868 13.2109V14.2428H50.1474V13.2109V12.1791H45.9868V13.2109ZM54.308 13.2109V14.2428H58.4686V13.2109V12.1791H54.308V13.2109ZM62.6292 13.2109V14.2428H66.7898V13.2109V12.1791H62.6292V13.2109ZM70.9504 13.2109V14.2428H75.1111V13.2109V12.1791H70.9504V13.2109ZM79.2717 13.2109V14.2428H83.4323V13.2109V12.1791H79.2717V13.2109ZM87.5929 13.2109V14.2428H91.7535V13.2109V12.1791H87.5929V13.2109ZM95.9141 13.2109V14.2428H100.075V13.2109V12.1791H95.9141V13.2109ZM104.235 13.2109V14.2428H108.396V13.2109V12.1791H104.235V13.2109ZM112.557 13.2109V14.2428H116.717V13.2109V12.1791H112.557V13.2109ZM120.878 13.2109V14.2428H125.038V13.2109V12.1791H120.878V13.2109ZM129.199 13.2109V14.2428H133.36V13.2109V12.1791H129.199V13.2109ZM137.52 13.2109V14.2428H141.681V13.2109V12.1791H137.52V13.2109ZM145.841 13.2109V14.2428H150.002V13.2109V12.1791H145.841V13.2109ZM154.163 13.2109V14.2428H158.323V13.2109V12.1791H154.163V13.2109ZM162.484 13.2109V14.2428H166.645V13.2109V12.1791H162.484V13.2109ZM170.805 13.2109V14.2428H174.966V13.2109V12.1791H170.805V13.2109ZM179.126 13.2109V14.2428H183.287V13.2109V12.1791H179.126V13.2109ZM187.448 13.2109V14.2428H191.608V13.2109V12.1791H187.448V13.2109ZM195.769 13.2109V14.2428H199.929V13.2109V12.1791H195.769V13.2109ZM204.09 13.2109V14.2428H208.251V13.2109V12.1791H204.09V13.2109ZM212.411 13.2109V14.2428H216.572V13.2109V12.1791H212.411V13.2109ZM220.733 13.2109V14.2428H224.893V13.2109V12.1791H220.733V13.2109ZM229.054 13.2109V14.2428H233.214V13.2109V12.1791H229.054V13.2109ZM237.375 13.2109V14.2428H241.536V13.2109V12.1791H237.375V13.2109ZM245.696 13.2109V14.2428H249.857V13.2109V12.1791H245.696V13.2109ZM254.017 13.2109V14.2428H258.178V13.2109V12.1791H254.017V13.2109ZM262.339 13.2109V14.2428H264.419V13.2109V12.1791H262.339V13.2109ZM0.957834 13.2109C0.957834 16.2502 3.42166 18.714 6.46094 18.714C9.50022 18.714 11.964 16.2502 11.964 13.2109C11.964 10.1717 9.50022 7.70783 6.46094 7.70783C3.42166 7.70783 0.957834 10.1717 0.957834 13.2109ZM258.916 13.2109C258.916 16.2502 261.38 18.714 264.419 18.714C267.458 18.714 269.922 16.2502 269.922 13.2109C269.922 10.1717 267.458 7.70783 264.419 7.70783C261.38 7.70783 258.916 10.1717 258.916 13.2109ZM6.46094 13.2109V14.2428H8.54124V13.2109V12.1791H6.46094V13.2109ZM12.7019 13.2109V14.2428H16.8625V13.2109V12.1791H12.7019V13.2109ZM21.0231 13.2109V14.2428H25.1837V13.2109V12.1791H21.0231V13.2109ZM29.3443 13.2109V14.2428H33.5049V13.2109V12.1791H29.3443V13.2109ZM37.6655 13.2109V14.2428H41.8261V13.2109V12.1791H37.6655V13.2109ZM45.9868 13.2109V14.2428H50.1474V13.2109V12.1791H45.9868V13.2109ZM54.308 13.2109V14.2428H58.4686V13.2109V12.1791H54.308V13.2109ZM62.6292 13.2109V14.2428H66.7898V13.2109V12.1791H62.6292V13.2109ZM70.9504 13.2109V14.2428H75.1111V13.2109V12.1791H70.9504V13.2109ZM79.2717 13.2109V14.2428H83.4323V13.2109V12.1791H79.2717V13.2109ZM87.5929 13.2109V14.2428H91.7535V13.2109V12.1791H87.5929V13.2109ZM95.9141 13.2109V14.2428H100.075V13.2109V12.1791H95.9141V13.2109ZM104.235 13.2109V14.2428H108.396V13.2109V12.1791H104.235V13.2109ZM112.557 13.2109V14.2428H116.717V13.2109V12.1791H112.557V13.2109ZM120.878 13.2109V14.2428H125.038V13.2109V12.1791H120.878V13.2109ZM129.199 13.2109V14.2428H133.36V13.2109V12.1791H129.199V13.2109ZM137.52 13.2109V14.2428H141.681V13.2109V12.1791H137.52V13.2109ZM145.841 13.2109V14.2428H150.002V13.2109V12.1791H145.841V13.2109ZM154.163 13.2109V14.2428H158.323V13.2109V12.1791H154.163V13.2109ZM162.484 13.2109V14.2428H166.645V13.2109V12.1791H162.484V13.2109ZM170.805 13.2109V14.2428H174.966V13.2109V12.1791H170.805V13.2109ZM179.126 13.2109V14.2428H183.287V13.2109V12.1791H179.126V13.2109ZM187.448 13.2109V14.2428H191.608V13.2109V12.1791H187.448V13.2109ZM195.769 13.2109V14.2428H199.929V13.2109V12.1791H195.769V13.2109ZM204.09 13.2109V14.2428H208.251V13.2109V12.1791H204.09V13.2109ZM212.411 13.2109V14.2428H216.572V13.2109V12.1791H212.411V13.2109ZM220.733 13.2109V14.2428H224.893V13.2109V12.1791H220.733V13.2109ZM229.054 13.2109V14.2428H233.214V13.2109V12.1791H229.054V13.2109ZM237.375 13.2109V14.2428H241.536V13.2109V12.1791H237.375V13.2109ZM245.696 13.2109V14.2428H249.857V13.2109V12.1791H245.696V13.2109ZM254.017 13.2109V14.2428H258.178V13.2109V12.1791H254.017V13.2109ZM262.339 13.2109V14.2428H264.419V13.2109V12.1791H262.339V13.2109Z" fill="white"/>
<path d="M92.088 3.87012L87.4184 11.1663L82.3111 11.1663C80.1223 11.1663 78.2982 12.2607 77.9334 13.3551C78.2982 14.4495 80.1223 15.544 82.3111 15.544L87.4184 15.544L92.088 22.8401C92.3798 23.2779 92.8176 23.4238 93.2553 23.2779L93.839 23.132C94.3498 22.9131 94.6416 22.4753 94.5686 21.9646L93.2553 15.544L96.9034 14.8144L99.0923 17.0032L100.551 17.0032L99.8219 13.3551L100.551 9.70705L99.0923 9.70704L96.9034 11.8959L93.2553 11.1663L94.5686 4.74566C94.6416 4.23493 94.3498 3.79716 93.839 3.57828L93.3283 3.35939C92.8176 3.28643 92.3798 3.43235 92.088 3.87012Z" fill="white"/>
<path d="M269.921 48.0039C269.921 51.0432 267.457 53.507 264.418 53.507C261.379 53.507 258.915 51.0432 258.915 48.0039C258.915 44.9646 261.379 42.5008 264.418 42.5008C267.457 42.5008 269.921 44.9646 269.921 48.0039ZM11.9631 48.0039C11.9631 51.0432 9.4993 53.507 6.46002 53.507C3.42075 53.507 0.956909 51.0432 0.956909 48.0039C0.956909 44.9646 3.42075 42.5008 6.46002 42.5008C9.4993 42.5008 11.9631 44.9646 11.9631 48.0039ZM264.418 48.0039V49.0357H262.338V48.0039V46.9721H264.418V48.0039ZM258.177 48.0039V49.0357H254.016V48.0039V46.9721H258.177V48.0039ZM249.856 48.0039V49.0357H245.695V48.0039V46.9721H249.856V48.0039ZM241.535 48.0039V49.0357H237.374V48.0039V46.9721H241.535V48.0039ZM233.213 48.0039V49.0357H229.053V48.0039V46.9721H233.213V48.0039ZM224.892 48.0039V49.0357H220.732V48.0039V46.9721H224.892V48.0039ZM216.571 48.0039V49.0357H212.41V48.0039V46.9721H216.571V48.0039ZM208.25 48.0039V49.0357H204.089V48.0039V46.9721H208.25V48.0039ZM199.928 48.0039V49.0357H195.768V48.0039V46.9721H199.928V48.0039ZM191.607 48.0039V49.0357H187.447V48.0039V46.9721H191.607V48.0039ZM183.286 48.0039V49.0357H179.125V48.0039V46.9721H183.286V48.0039ZM174.965 48.0039V49.0357H170.804V48.0039V46.9721H174.965V48.0039ZM166.644 48.0039V49.0357H162.483V48.0039V46.9721H166.644V48.0039ZM158.322 48.0039V49.0357H154.162V48.0039V46.9721H158.322V48.0039ZM150.001 48.0039V49.0357H145.84V48.0039V46.9721H150.001V48.0039ZM141.68 48.0039V49.0357H137.519V48.0039V46.9721H141.68V48.0039ZM133.359 48.0039V49.0357H129.198V48.0039V46.9721H133.359V48.0039ZM125.037 48.0039V49.0357H120.877V48.0039V46.9721H125.037V48.0039ZM116.716 48.0039V49.0357H112.556V48.0039V46.9721H116.716V48.0039ZM108.395 48.0039V49.0357H104.234V48.0039V46.9721H108.395V48.0039ZM100.074 48.0039V49.0357H95.9131V48.0039V46.9721H100.074V48.0039ZM91.7525 48.0039V49.0357H87.5919V48.0039V46.9721H91.7525V48.0039ZM83.4313 48.0039V49.0357H79.2707V48.0039V46.9721H83.4313V48.0039ZM75.11 48.0039V49.0357H70.9494V48.0039V46.9721H75.11V48.0039ZM66.7888 48.0039V49.0357H62.6282V48.0039V46.9721H66.7888V48.0039ZM58.4676 48.0039V49.0357H54.307V48.0039V46.9721H58.4676V48.0039ZM50.1464 48.0039V49.0357H45.9857V48.0039V46.9721H50.1464V48.0039ZM41.8251 48.0039V49.0357H37.6645V48.0039V46.9721H41.8251V48.0039ZM33.5039 48.0039V49.0357H29.3433V48.0039V46.9721H33.5039V48.0039ZM25.1827 48.0039V49.0357H21.0221V48.0039V46.9721H25.1827V48.0039ZM16.8615 48.0039V49.0357H12.7008V48.0039V46.9721H16.8615V48.0039ZM8.54022 48.0039V49.0357H6.46002V48.0039V46.9721H8.54022V48.0039ZM269.921 48.0039C269.921 51.0432 267.457 53.507 264.418 53.507C261.379 53.507 258.915 51.0432 258.915 48.0039C258.915 44.9646 261.379 42.5008 264.418 42.5008C267.457 42.5008 269.921 44.9646 269.921 48.0039ZM11.9631 48.0039C11.9631 51.0432 9.4993 53.507 6.46002 53.507C3.42075 53.507 0.956909 51.0432 0.956909 48.0039C0.956909 44.9646 3.42075 42.5008 6.46002 42.5008C9.4993 42.5008 11.9631 44.9646 11.9631 48.0039ZM264.418 48.0039V49.0357H262.338V48.0039V46.9721H264.418V48.0039ZM258.177 48.0039V49.0357H254.016V48.0039V46.9721H258.177V48.0039ZM249.856 48.0039V49.0357H245.695V48.0039V46.9721H249.856V48.0039ZM241.535 48.0039V49.0357H237.374V48.0039V46.9721H241.535V48.0039ZM233.213 48.0039V49.0357H229.053V48.0039V46.9721H233.213V48.0039ZM224.892 48.0039V49.0357H220.732V48.0039V46.9721H224.892V48.0039ZM216.571 48.0039V49.0357H212.41V48.0039V46.9721H216.571V48.0039ZM208.25 48.0039V49.0357H204.089V48.0039V46.9721H208.25V48.0039ZM199.928 48.0039V49.0357H195.768V48.0039V46.9721H199.928V48.0039ZM191.607 48.0039V49.0357H187.447V48.0039V46.9721H191.607V48.0039ZM183.286 48.0039V49.0357H179.125V48.0039V46.9721H183.286V48.0039ZM174.965 48.0039V49.0357H170.804V48.0039V46.9721H174.965V48.0039ZM166.644 48.0039V49.0357H162.483V48.0039V46.9721H166.644V48.0039ZM158.322 48.0039V49.0357H154.162V48.0039V46.9721H158.322V48.0039ZM150.001 48.0039V49.0357H145.84V48.0039V46.9721H150.001V48.0039ZM141.68 48.0039V49.0357H137.519V48.0039V46.9721H141.68V48.0039ZM133.359 48.0039V49.0357H129.198V48.0039V46.9721H133.359V48.0039ZM125.037 48.0039V49.0357H120.877V48.0039V46.9721H125.037V48.0039ZM116.716 48.0039V49.0357H112.556V48.0039V46.9721H116.716V48.0039ZM108.395 48.0039V49.0357H104.234V48.0039V46.9721H108.395V48.0039ZM100.074 48.0039V49.0357H95.9131V48.0039V46.9721H100.074V48.0039ZM91.7525 48.0039V49.0357H87.5919V48.0039V46.9721H91.7525V48.0039ZM83.4313 48.0039V49.0357H79.2707V48.0039V46.9721H83.4313V48.0039ZM75.11 48.0039V49.0357H70.9494V48.0039V46.9721H75.11V48.0039ZM66.7888 48.0039V49.0357H62.6282V48.0039V46.9721H66.7888V48.0039ZM58.4676 48.0039V49.0357H54.307V48.0039V46.9721H58.4676V48.0039ZM50.1464 48.0039V49.0357H45.9857V48.0039V46.9721H50.1464V48.0039ZM41.8251 48.0039V49.0357H37.6645V48.0039V46.9721H41.8251V48.0039ZM33.5039 48.0039V49.0357H29.3433V48.0039V46.9721H33.5039V48.0039ZM25.1827 48.0039V49.0357H21.0221V48.0039V46.9721H25.1827V48.0039ZM16.8615 48.0039V49.0357H12.7008V48.0039V46.9721H16.8615V48.0039ZM8.54022 48.0039V49.0357H6.46002V48.0039V46.9721H8.54022V48.0039Z" fill="white"/>
<path d="M178.795 38.6631L183.464 45.9592L188.572 45.9592C190.761 45.9592 192.585 47.0537 192.949 48.1481C192.585 49.2425 190.761 50.3369 188.572 50.3369L183.464 50.3369L178.795 57.6331C178.503 58.0709 178.065 58.2168 177.627 58.0709L177.044 57.9249C176.533 57.7061 176.241 57.2683 176.314 56.7576L177.627 50.3369L173.979 49.6073L171.791 51.7962L170.331 51.7962L171.061 48.1481L170.331 44.5L171.791 44.5L173.979 46.6889L177.627 45.9592L176.314 39.5386C176.241 39.0279 176.533 38.5901 177.044 38.3712L177.555 38.1524C178.065 38.0794 178.503 38.2253 178.795 38.6631Z" fill="white"/>
</svg>
