<svg width="269" height="38" viewBox="0 0 269 38" fill="none" xmlns="http://www.w3.org/2000/svg">
<path d="M268.995 18.7656C268.995 21.8049 266.531 24.2687 263.492 24.2687C260.453 24.2687 257.989 21.8049 257.989 18.7656C257.989 15.7263 260.453 13.2625 263.492 13.2625C266.531 13.2625 268.995 15.7263 268.995 18.7656ZM11.0373 18.7656C11.0373 21.8049 8.57352 24.2687 5.53424 24.2687C2.49496 24.2687 0.0311279 21.8049 0.0311279 18.7656C0.0311279 15.7263 2.49496 13.2625 5.53424 13.2625C8.57352 13.2625 11.0373 15.7263 11.0373 18.7656ZM263.492 18.7656V19.7975H261.412V18.7656V17.7338H263.492V18.7656ZM257.251 18.7656V19.7975H253.091V18.7656V17.7338H257.251V18.7656ZM248.93 18.7656V19.7975H244.769V18.7656V17.7338H248.93V18.7656ZM240.609 18.7656V19.7975H236.448V18.7656V17.7338H240.609V18.7656ZM232.288 18.7656V19.7975H228.127V18.7656V17.7338H232.288V18.7656ZM223.966 18.7656V19.7975H219.806V18.7656V17.7338H223.966V18.7656ZM215.645 18.7656V19.7975H211.485V18.7656V17.7338H215.645V18.7656ZM207.324 18.7656V19.7975H203.163V18.7656V17.7338H207.324V18.7656ZM199.003 18.7656V19.7975H194.842V18.7656V17.7338H199.003V18.7656ZM190.681 18.7656V19.7975H186.521V18.7656V17.7338H190.681V18.7656ZM182.36 18.7656V19.7975H178.2V18.7656V17.7338H182.36V18.7656ZM174.039 18.7656V19.7975H169.878V18.7656V17.7338H174.039V18.7656ZM165.718 18.7656V19.7975H161.557V18.7656V17.7338H165.718V18.7656ZM157.397 18.7656V19.7975H153.236V18.7656V17.7338H157.397V18.7656ZM149.075 18.7656V19.7975H144.915V18.7656V17.7338H149.075V18.7656ZM140.754 18.7656V19.7975H136.593V18.7656V17.7338H140.754V18.7656ZM132.433 18.7656V19.7975H128.272V18.7656V17.7338H132.433V18.7656ZM124.112 18.7656V19.7975H119.951V18.7656V17.7338H124.112V18.7656ZM115.79 18.7656V19.7975H111.63V18.7656V17.7338H115.79V18.7656ZM107.469 18.7656V19.7975H103.309V18.7656V17.7338H107.469V18.7656ZM99.1479 18.7656V19.7975H94.9873V18.7656V17.7338H99.1479V18.7656ZM90.8267 18.7656V19.7975H86.6661V18.7656V17.7338H90.8267V18.7656ZM82.5055 18.7656V19.7975H78.3449V18.7656V17.7338H82.5055V18.7656ZM74.1843 18.7656V19.7975H70.0237V18.7656V17.7338H74.1843V18.7656ZM65.863 18.7656V19.7975H61.7024V18.7656V17.7338H65.863V18.7656ZM57.5418 18.7656V19.7975H53.3812V18.7656V17.7338H57.5418V18.7656ZM49.2206 18.7656V19.7975H45.06V18.7656V17.7338H49.2206V18.7656ZM40.8994 18.7656V19.7975H36.7387V18.7656V17.7338H40.8994V18.7656ZM32.5781 18.7656V19.7975H28.4175V18.7656V17.7338H32.5781V18.7656ZM24.2569 18.7656V19.7975H20.0963V18.7656V17.7338H24.2569V18.7656ZM15.9357 18.7656V19.7975H11.7751V18.7656V17.7338H15.9357V18.7656ZM7.61444 18.7656V19.7975H5.53424V18.7656V17.7338H7.61444V18.7656ZM268.995 18.7656C268.995 21.8049 266.531 24.2687 263.492 24.2687C260.453 24.2687 257.989 21.8049 257.989 18.7656C257.989 15.7263 260.453 13.2625 263.492 13.2625C266.531 13.2625 268.995 15.7263 268.995 18.7656ZM11.0373 18.7656C11.0373 21.8049 8.57352 24.2687 5.53424 24.2687C2.49496 24.2687 0.0311279 21.8049 0.0311279 18.7656C0.0311279 15.7263 2.49496 13.2625 5.53424 13.2625C8.57352 13.2625 11.0373 15.7263 11.0373 18.7656ZM263.492 18.7656V19.7975H261.412V18.7656V17.7338H263.492V18.7656ZM257.251 18.7656V19.7975H253.091V18.7656V17.7338H257.251V18.7656ZM248.93 18.7656V19.7975H244.769V18.7656V17.7338H248.93V18.7656ZM240.609 18.7656V19.7975H236.448V18.7656V17.7338H240.609V18.7656ZM232.288 18.7656V19.7975H228.127V18.7656V17.7338H232.288V18.7656ZM223.966 18.7656V19.7975H219.806V18.7656V17.7338H223.966V18.7656ZM215.645 18.7656V19.7975H211.485V18.7656V17.7338H215.645V18.7656ZM207.324 18.7656V19.7975H203.163V18.7656V17.7338H207.324V18.7656ZM199.003 18.7656V19.7975H194.842V18.7656V17.7338H199.003V18.7656ZM190.681 18.7656V19.7975H186.521V18.7656V17.7338H190.681V18.7656ZM182.36 18.7656V19.7975H178.2V18.7656V17.7338H182.36V18.7656ZM174.039 18.7656V19.7975H169.878V18.7656V17.7338H174.039V18.7656ZM165.718 18.7656V19.7975H161.557V18.7656V17.7338H165.718V18.7656ZM157.397 18.7656V19.7975H153.236V18.7656V17.7338H157.397V18.7656ZM149.075 18.7656V19.7975H144.915V18.7656V17.7338H149.075V18.7656ZM140.754 18.7656V19.7975H136.593V18.7656V17.7338H140.754V18.7656ZM132.433 18.7656V19.7975H128.272V18.7656V17.7338H132.433V18.7656ZM124.112 18.7656V19.7975H119.951V18.7656V17.7338H124.112V18.7656ZM115.79 18.7656V19.7975H111.63V18.7656V17.7338H115.79V18.7656ZM107.469 18.7656V19.7975H103.309V18.7656V17.7338H107.469V18.7656ZM99.1479 18.7656V19.7975H94.9873V18.7656V17.7338H99.1479V18.7656ZM90.8267 18.7656V19.7975H86.6661V18.7656V17.7338H90.8267V18.7656ZM82.5055 18.7656V19.7975H78.3449V18.7656V17.7338H82.5055V18.7656ZM74.1843 18.7656V19.7975H70.0237V18.7656V17.7338H74.1843V18.7656ZM65.863 18.7656V19.7975H61.7024V18.7656V17.7338H65.863V18.7656ZM57.5418 18.7656V19.7975H53.3812V18.7656V17.7338H57.5418V18.7656ZM49.2206 18.7656V19.7975H45.06V18.7656V17.7338H49.2206V18.7656ZM40.8994 18.7656V19.7975H36.7387V18.7656V17.7338H40.8994V18.7656ZM32.5781 18.7656V19.7975H28.4175V18.7656V17.7338H32.5781V18.7656ZM24.2569 18.7656V19.7975H20.0963V18.7656V17.7338H24.2569V18.7656ZM15.9357 18.7656V19.7975H11.7751V18.7656V17.7338H15.9357V18.7656ZM7.61444 18.7656V19.7975H5.53424V18.7656V17.7338H7.61444V18.7656Z" fill="white"/>
<path d="M132.488 5.9358L138.867 15.9038L145.845 15.9038C148.835 15.9038 151.327 17.399 151.826 18.8942C151.327 20.3894 148.835 21.8846 145.845 21.8846L138.867 21.8846L132.488 31.8525C132.089 32.4506 131.491 32.65 130.893 32.4506L130.096 32.2513C129.398 31.9522 128.999 31.3541 129.099 30.6564L130.893 21.8846L125.909 20.8878L122.919 23.8782L120.925 23.8782L121.922 18.8942L120.925 13.9102L122.919 13.9102L125.909 16.9006L130.893 15.9038L129.099 7.13196C128.999 6.4342 129.398 5.83612 130.096 5.53708L130.793 5.23804C131.491 5.13836 132.089 5.33772 132.488 5.9358Z" fill="white"/>
</svg>
