<svg width="47" height="46" viewBox="0 0 47 46" fill="none" xmlns="http://www.w3.org/2000/svg">
<rect x="0.222656" width="45.9263" height="45.9263" rx="22.9631" fill="white"/>
<rect x="0.860521" y="0.637865" width="44.6505" height="44.6505" rx="22.3253" stroke="#111827" stroke-opacity="0.12" stroke-width="1.27573"/>
<g clip-path="url(#clip0_392_1218)">
<path d="M20.9071 19.8841V23.5699C18.9711 23.255 17.5079 24.0711 17.0259 25.7166C16.5135 27.4674 17.5706 29.2394 19.3771 29.6546C21.0519 30.0394 22.7541 28.8577 23.0427 27.1008C23.0913 26.8031 23.1227 26.4993 23.1227 26.1976C23.1278 21.6743 23.1257 17.1501 23.1257 12.6268C23.1257 12.4273 23.1257 12.2288 23.1257 12H26.7417C26.7437 13.3781 27.2277 14.5791 28.21 15.5643C29.1912 16.5496 30.384 17.067 31.8067 17.1501V20.8035C30.9116 20.6324 30.0266 20.5392 29.1912 20.281C28.3689 20.0268 27.5994 19.6046 26.7741 19.2421C26.7741 19.3798 26.7741 19.557 26.7741 19.7342C26.7741 21.9963 26.7842 24.2575 26.7711 26.5196C26.7549 29.5918 24.7702 32.2276 21.858 33.0731C17.9615 34.2062 13.9071 31.4965 13.3957 27.4785C12.9289 23.8068 15.432 20.4116 19.2394 19.8932C19.767 19.8213 20.3127 19.883 20.9071 19.883V19.8841Z" fill="#F27709"/>
</g>
<defs>
<clipPath id="clip0_392_1218">
<rect width="18.4667" height="21.3333" fill="white" transform="translate(13.3398 12)"/>
</clipPath>
</defs>
</svg>
