<svg width="47" height="46" viewBox="0 0 47 46" fill="none" xmlns="http://www.w3.org/2000/svg">
<rect x="0.410156" width="45.9263" height="45.9263" rx="22.9631" fill="white"/>
<rect x="1.04802" y="0.637865" width="44.6505" height="44.6505" rx="22.3253" stroke="#111827" stroke-opacity="0.12" stroke-width="1.27573"/>
<g clip-path="url(#clip0_392_1211)">
<path d="M21.2753 24.9775C20.887 25.4282 20.5102 25.8642 20.135 26.3008C18.535 28.1618 16.9351 30.0234 15.3351 31.8844C14.9749 32.3039 14.6098 32.7193 14.2597 33.1469C14.147 33.2842 14.0314 33.3365 13.8553 33.3325C13.3704 33.3209 12.8856 33.3284 12.3398 33.3284C15.075 30.1446 17.778 26.9979 20.4971 23.8327C17.7951 19.906 15.0937 15.9807 12.3615 12.0102C12.4902 12.0102 12.5697 12.0102 12.6492 12.0102C14.5102 12.0102 16.3712 12.0132 18.2317 12.0057C18.4249 12.0047 18.5295 12.0711 18.6356 12.2255C20.3543 14.7298 22.08 17.2301 23.8037 19.7309C23.8309 19.7701 23.8591 19.8089 23.9018 19.8692C24.35 19.3476 24.785 18.8411 25.2201 18.3352C26.8322 16.4621 28.4447 14.5895 30.0573 12.7169C30.1664 12.5901 30.2962 12.4755 30.3812 12.3341C30.5562 12.0439 30.8022 11.983 31.1211 12.0037C31.53 12.0303 31.9414 12.0102 32.4107 12.0102C32.1597 12.307 31.9394 12.5705 31.7156 12.8311C29.9959 14.8329 28.2762 16.8338 26.556 18.8346C25.9987 19.4824 25.446 20.1343 24.8786 20.7731C24.7297 20.9411 24.696 21.0507 24.8384 21.2564C27.561 25.1938 30.274 29.1381 32.9886 33.0815C33.0344 33.1484 33.0751 33.2188 33.1425 33.3274H32.8428C30.9903 33.3274 29.1378 33.3239 27.2853 33.333C27.0922 33.334 26.9871 33.2701 26.8825 33.1172C25.0697 30.474 23.2515 27.8344 21.4342 25.1943C21.3879 25.1269 21.3376 25.062 21.2753 24.977V24.9775ZM14.9996 13.3939C15.0594 13.49 15.0997 13.5599 15.145 13.6258C15.9462 14.7912 16.7485 15.9561 17.5502 17.121C20.9136 22.0084 24.2775 26.8963 27.6384 31.7858C27.7229 31.909 27.813 31.9608 27.9664 31.9593C28.7374 31.9513 29.5085 31.9563 30.2801 31.9548C30.3505 31.9548 30.4209 31.9442 30.5185 31.9362C30.4727 31.8648 30.4476 31.8225 30.4199 31.7823C29.6946 30.727 28.9693 29.6718 28.2435 28.617C24.785 23.5913 21.3271 18.5655 17.862 13.5448C17.8047 13.4613 17.6644 13.3919 17.5618 13.3904C16.7741 13.3778 15.9859 13.3833 15.1983 13.3838C15.1429 13.3838 15.0871 13.3894 14.9996 13.3944V13.3939Z" fill="#F27709"/>
</g>
<defs>
<clipPath id="clip0_392_1211">
<rect width="20.8032" height="21.3333" fill="white" transform="translate(12.3398 12)"/>
</clipPath>
</defs>
</svg>
